<?xml version="1.0" standalone="no"?>
<!DOCTYPE svg PUBLIC "-//W3C//DTD SVG 20010904//EN"
 "http://www.w3.org/TR/2001/REC-SVG-20010904/DTD/svg10.dtd">
<svg version="1.0" xmlns="http://www.w3.org/2000/svg"
 width="512.000000pt" height="512.000000pt" viewBox="0 0 512.000000 512.000000"
 preserveAspectRatio="xMidYMid meet">

<g transform="translate(0.000000,512.000000) scale(0.100000,-0.100000)"
fill="#000000" stroke="none">
<path d="M2290 5105 c-1404 -154 -2423 -1411 -2275 -2806 149 -1409 1407
-2433 2806 -2284 1213 128 2156 1072 2284 2285 98 918 -322 1832 -1086 2362
-501 348 -1129 509 -1729 443z m1270 -1715 c95 -27 223 -95 308 -162 128 -102
234 -267 284 -443 29 -104 32 -333 5 -435 -85 -318 -309 -546 -622 -632 -113
-31 -325 -31 -440 1 -302 81 -519 293 -612 598 -24 79 -27 103 -27 243 0 140
3 164 27 243 95 311 332 532 647 602 98 22 332 14 430 -15z m-1372 -597 c-3
-606 -3 -608 -27 -678 -70 -211 -208 -346 -411 -401 -81 -22 -280 -25 -360 -5
-125 31 -247 107 -331 208 -50 60 -116 190 -103 203 9 9 156 72 158 68 15 -44
77 -146 110 -184 160 -182 483 -190 649 -15 59 61 84 105 113 191 17 50 19
106 22 638 l3 582 90 0 90 0 -3 -607z"/>
<path d="M3142 3230 c-118 -31 -207 -84 -298 -175 -90 -90 -130 -153 -170
-270 -35 -106 -44 -264 -20 -380 30 -149 125 -306 238 -396 61 -49 189 -111
268 -130 78 -19 250 -17 330 5 184 50 339 177 423 347 62 125 81 219 74 364
-9 196 -67 327 -201 460 -83 83 -154 127 -263 167 -87 30 -283 35 -381 8z"/>
</g>
</svg>